<svg width="1062" height="433" viewBox="0 0 1062 433" fill="none" xmlns="http://www.w3.org/2000/svg">
<path d="M243.273 254.355L327.368 54.4717C330.141 47.8807 325.301 40.5938 318.151 40.5938H100.817C96.8169 40.5938 93.2014 42.9779 91.6257 46.655L5.97296 246.538C3.14535 253.136 7.98563 260.477 15.1646 260.477H234.055C238.08 260.477 241.712 258.064 243.273 254.355Z" fill="#46A1B0"/>
<path d="M1034.5 171.753L1057.94 115.479C1059.03 112.845 1057.1 109.941 1054.24 109.941H993.743C992.137 109.941 990.687 110.901 990.06 112.379L966.191 168.653C965.072 171.291 967.008 174.215 969.874 174.215H1030.81C1032.42 174.215 1033.88 173.244 1034.5 171.753Z" fill="#4F46E5"/>
<path d="M883.722 420.774L1049.52 27.774C1055.08 14.5897 1045.4 0 1031.09 0H202.508C194.515 0 187.289 4.7599 184.133 12.1043L15.2657 405.104C9.59408 418.304 19.2748 433 33.6412 433H865.295C873.337 433 880.596 428.183 883.722 420.774Z" fill="#DFF6FC"/>
</svg>
